<svg id="Group_50" data-name="Group 50" xmlns="http://www.w3.org/2000/svg" xmlns:xlink="http://www.w3.org/1999/xlink" width="479.129" height="114.646" viewBox="0 0 479.129 114.646">
  <defs>
    <clipPath id="clip-path">
      <rect id="Rectangle_62" data-name="Rectangle 62" width="479.129" height="114.646" fill="#f5e0a8"/>
    </clipPath>
  </defs>
  <g id="Group_49" data-name="Group 49" clip-path="url(#clip-path)">
    <path id="Path_101" data-name="Path 101" d="M245.017,114.646h5.522a6.1,6.1,0,0,0,6.1-6.1V19.133A19.133,19.133,0,0,0,237.508,0H224.675a6.1,6.1,0,0,0-6.1,6.1V88.2a26.444,26.444,0,0,0,26.444,26.444" transform="translate(-174.112)" fill="#f5e0a8"/>
    <path id="Path_102" data-name="Path 102" d="M441.315,413.757h12.832a19.133,19.133,0,0,0,19.133-19.133V381.593a6.1,6.1,0,0,0-6.1-6.1H454.346a19.133,19.133,0,0,0-19.133,19.133v13.031a6.1,6.1,0,0,0,6.1,6.1" transform="translate(-346.685 -299.111)" fill="#f5e0a8"/>
    <path id="Path_103" data-name="Path 103" d="M441.315,197.937h12.832A19.133,19.133,0,0,0,473.281,178.8V165.773a6.1,6.1,0,0,0-6.1-6.1H441.315a6.1,6.1,0,0,0-6.1,6.1v26.061a6.1,6.1,0,0,0,6.1,6.1" transform="translate(-346.685 -127.192)" fill="#f5e0a8"/>
    <path id="Path_104" data-name="Path 104" d="M657.954,242.226h12.832a19.133,19.133,0,0,0,19.133-19.133V166.26a6.1,6.1,0,0,0-6.1-6.1H670.985a19.133,19.133,0,0,0-19.133,19.133v56.832a6.1,6.1,0,0,0,6.1,6.1" transform="translate(-519.256 -127.58)" fill="#f5e0a8"/>
    <path id="Path_105" data-name="Path 105" d="M19.133,77.324H31.965a6.1,6.1,0,0,0,6.1-6.1V26.444A26.444,26.444,0,0,0,11.624,0H6.1A6.1,6.1,0,0,0,0,6.1V58.191A19.133,19.133,0,0,0,19.133,77.324" fill="#f5e0a8"/>
    <path id="Path_106" data-name="Path 106" d="M874.593,197.937h12.832A19.133,19.133,0,0,0,906.559,178.8V165.773a6.1,6.1,0,0,0-6.1-6.1H887.624A19.133,19.133,0,0,0,868.491,178.8v13.031a6.1,6.1,0,0,0,6.1,6.1" transform="translate(-691.828 -127.192)" fill="#f5e0a8"/>
    <path id="Path_107" data-name="Path 107" d="M1104.263,413.757H1117.1a6.1,6.1,0,0,0,6.1-6.1V381.593a6.1,6.1,0,0,0-6.1-6.1h-12.832a19.133,19.133,0,0,0,0,38.266" transform="translate(-864.4 -299.111)" fill="#f5e0a8"/>
    <path id="Path_108" data-name="Path 108" d="M1104.263,197.937H1117.1a6.1,6.1,0,0,0,6.1-6.1V165.773a6.1,6.1,0,0,0-6.1-6.1h-25.863a6.1,6.1,0,0,0-6.1,6.1V178.8a19.133,19.133,0,0,0,19.133,19.133" transform="translate(-864.4 -127.192)" fill="#f5e0a8"/>
    <path id="Path_109" data-name="Path 109" d="M1741.15,413.757h12.832a19.133,19.133,0,0,0,19.133-19.133V381.593a6.1,6.1,0,0,0-6.1-6.1h-12.832a19.133,19.133,0,0,0-19.133,19.133v13.031a6.1,6.1,0,0,0,6.1,6.1" transform="translate(-1382.116 -299.111)" fill="#f5e0a8"/>
    <path id="Path_110" data-name="Path 110" d="M1754.181,197.937h12.832a6.1,6.1,0,0,0,6.1-6.1V178.8a19.133,19.133,0,0,0-19.133-19.133H1741.15a6.1,6.1,0,0,0-6.1,6.1V178.8a19.133,19.133,0,0,0,19.133,19.133" transform="translate(-1382.116 -127.192)" fill="#f5e0a8"/>
    <path id="Path_111" data-name="Path 111" d="M2187.43,411.885h12.832a6.1,6.1,0,0,0,6.1-6.1V392.752a19.133,19.133,0,0,0-19.133-19.133H2174.4a6.1,6.1,0,0,0-6.1,6.1v13.031a19.133,19.133,0,0,0,19.133,19.133" transform="translate(-1727.236 -297.62)" fill="#f5e0a8"/>
    <path id="Path_112" data-name="Path 112" d="M2174.4,196.065h12.833a19.133,19.133,0,0,0,19.133-19.133V163.9a6.1,6.1,0,0,0-6.1-6.1H2187.43a19.133,19.133,0,0,0-19.133,19.133v13.031a6.1,6.1,0,0,0,6.1,6.1" transform="translate(-1727.236 -125.701)" fill="#f5e0a8"/>
    <path id="Path_113" data-name="Path 113" d="M1307.872,241.838h25.863a6.1,6.1,0,0,0,6.1-6.1V178.8a19.133,19.133,0,0,0-19.133-19.133h-12.832a6.1,6.1,0,0,0-6.1,6.1v69.962a6.1,6.1,0,0,0,6.1,6.1" transform="translate(-1036.972 -127.192)" fill="#f5e0a8"/>
    <path id="Path_114" data-name="Path 114" d="M1537.542,241.838h12.833a6.1,6.1,0,0,0,6.1-6.1V165.773a6.1,6.1,0,0,0-6.1-6.1h-12.833a19.133,19.133,0,0,0-19.133,19.133v43.9a19.133,19.133,0,0,0,19.133,19.133" transform="translate(-1209.544 -127.192)" fill="#f5e0a8"/>
    <path id="Path_115" data-name="Path 115" d="M1970.82,114.646h12.832a6.1,6.1,0,0,0,6.1-6.1V19.133A19.133,19.133,0,0,0,1970.622,0h-12.832a6.1,6.1,0,0,0-6.1,6.1V95.513a19.133,19.133,0,0,0,19.133,19.133" transform="translate(-1554.688)" fill="#f5e0a8"/>
  </g>
</svg>
